HIERARCHY
ROOT Hips
{
    OFFSET 0.000000 0.000000 0.000000
    CHANNELS 6 Xposition Yposition Zposition Zrotation Xrotation Yrotation
    JOINT Spine
    {
        OFFSET -0.000000 7.979263 0.000000
        CHANNELS 3 Zrotation Xrotation Yrotation
        JOINT Spine1
        {
            OFFSET -0.000000 24.719021 0.000000
            CHANNELS 3 Zrotation Xrotation Yrotation
            JOINT Neck
            {
                OFFSET -0.000000 24.617504 2.237955
                CHANNELS 3 Zrotation Xrotation Yrotation
                JOINT Head
                {
                    OFFSET -0.000000 13.623132 -1.946162
                    CHANNELS 3 Zrotation Xrotation Yrotation
                    End Site
                    {
                        OFFSET -0.000000 24.327021 0.000000
                    }
                }
            }
            JOINT LeftShoulder
            {
                OFFSET 3.885773 23.018444 -0.302444
                CHANNELS 3 Zrotation Xrotation Yrotation
                JOINT LeftArm
                {
                    OFFSET 10.447750 0.000000 0.000000
                    CHANNELS 3 Zrotation Xrotation Yrotation
                    JOINT LeftForeArm
                    {
                        OFFSET 29.090096 0.000000 0.000000
                        CHANNELS 3 Zrotation Xrotation Yrotation
                        JOINT LeftHand
                        {
                            OFFSET 28.893339 0.000000 0.000000
                            CHANNELS 3 Zrotation Xrotation Yrotation
                            End Site
                            {
                                OFFSET 14.596213 0.000000 0.000000
                            }
                        }
                    }
                }
            }
            JOINT RightShoulder
            {
                OFFSET -3.864586 23.018444 -0.302444
                CHANNELS 3 Zrotation Xrotation Yrotation
                JOINT RightArm
                {
                    OFFSET -10.447750 0.000000 0.000000
                    CHANNELS 3 Zrotation Xrotation Yrotation
                    JOINT RightForeArm
                    {
                        OFFSET -29.090096 0.000000 0.000000
                        CHANNELS 3 Zrotation Xrotation Yrotation
                        JOINT RightHand
                        {
                            OFFSET -28.893339 0.000000 0.000000
                            CHANNELS 3 Zrotation Xrotation Yrotation
                            End Site
                            {
                                OFFSET -14.596213 0.000000 0.000000
                            }
                        }
                    }
                }
            }
        }
    }
    JOINT LeftUpLeg
    {
        OFFSET 9.730808 0.000000 0.000000
        CHANNELS 3 Zrotation Xrotation Yrotation
        JOINT LeftLeg
        {
            OFFSET -0.000000 -34.800129 0.000000
            CHANNELS 3 Zrotation Xrotation Yrotation
            JOINT LeftFoot
            {
                OFFSET -0.000000 -44.597416 0.000000
                CHANNELS 3 Zrotation Xrotation Yrotation
                JOINT LeftToeBase
                {
                    OFFSET -0.000000 -6.325025 14.596213
                    CHANNELS 3 Zrotation Xrotation Yrotation
                    End Site
                    {
                        OFFSET -0.000000 0.000000 3.892323
                    }
                }
            }
        }
    }
    JOINT RightUpLeg
    {
        OFFSET -9.730808 0.000000 0.000000
        CHANNELS 3 Zrotation Xrotation Yrotation
        JOINT RightLeg
        {
            OFFSET -0.000000 -34.800129 0.000000
            CHANNELS 3 Zrotation Xrotation Yrotation
            JOINT RightFoot
            {
                OFFSET -0.000000 -44.597416 0.000000
                CHANNELS 3 Zrotation Xrotation Yrotation
                JOINT RightToeBase
                {
                    OFFSET -0.000000 -6.325025 14.596213
                    CHANNELS 3 Zrotation Xrotation Yrotation
                    End Site
                    {
                        OFFSET -0.000000 0.000000 3.892323
                    }
                }
            }
        }
    }
}
MOTION
Frames:    9
Frame Time:    0.008333
-7.984816    85.818954    43.636086    -14.462193    2.929662    89.610390    1.329350    4.743778    -0.025407    1.376078    -2.324422    0.059555    -0.657177    16.581923    1.528955    1.614186    4.849452    1.752689    -0.859743    3.518808    -15.782435    -50.560604    42.444458    -8.882847    2.452879    -27.049355    -33.940140    -11.551742    -25.096806    -14.013126    -5.627692    2.009555    7.962127    45.189674    34.738434    17.071030    -6.439523    -27.611025    23.781124    7.084117    -25.410404    17.662973    -5.651452    -32.018353    -5.871505    0.463014    22.283161    4.228777    0.833912    3.858472    1.248268    0.000000    0.000000    0.000000    -5.923067    -31.907953    -10.770781    -2.456369    25.468555    -6.162550    8.429556    -1.744629    1.244181    0.000000    0.000000    0.000000    
-7.700963    85.998329    43.714493    -14.165304    2.907959    89.607605    1.369942    4.348179    -0.052023    1.356843    -2.190912    0.029095    -0.711576    16.369312    1.510485    1.429388    5.365494    1.709704    -0.772177    3.373945    -15.449979    -51.677368    43.038872    -8.676626    1.762436    -26.899670    -32.666679    -11.676360    -25.116541    -14.272135    -5.707869    2.066005    7.806599    46.598682    34.997055    16.741848    -6.285802    -27.036137    22.783550    9.162745    -24.548470    18.499552    -5.455167    -31.044767    -5.899382    0.399283    21.464222    4.469862    0.517846    4.137628    1.236963    0.000000    0.000000    0.000000    -5.817546    -30.943798    -10.605805    -2.246513    24.701500    -6.258258    8.411329    -1.536724    1.127926    0.000000    0.000000    0.000000    
-7.449716    86.191788    43.781948    -13.917737    2.938665    89.671280    1.420699    4.048498    -0.074457    1.166676    -2.313719    -0.000460    -0.607775    16.106840    1.720659    1.278560    6.193110    1.906422    -0.741705    3.373249    -15.348237    -52.777287    43.707691    -8.263062    1.353090    -26.887976    -31.370544    -11.788539    -25.224192    -14.179816    -5.480164    2.276514    7.770156    47.809742    35.627113    16.270103    -6.294116    -27.001574    21.802637    9.892034    -24.426311    18.838652    -5.348900    -30.190172    -5.969528    0.328119    20.708748    4.651273    0.065727    4.606685    1.324795    0.000000    0.000000    0.000000    -5.783207    -30.069077    -10.502693    -2.086222    23.971443    -6.294047    8.373542    -1.273887    0.937949    0.000000    0.000000    0.000000    
-7.146795    86.354431    43.880756    -13.588737    2.939613    89.595268    1.364756    3.693224    -0.017845    1.147135    -2.245644    0.050801    -0.815057    16.118172    1.835703    1.537522    6.537426    2.044943    -0.725195    3.477273    -15.255028    -53.719879    44.342117    -8.066690    1.054518    -26.873852    -29.888367    -12.258657    -25.220528    -14.433150    -5.414383    2.410351    7.721565    49.178658    35.996101    15.746283    -5.742501    -27.243122    21.158531    9.678777    -24.838825    18.761019    -5.074755    -29.231985    -5.623091    0.308077    19.944607    4.921341    -0.655908    4.857843    1.201937    0.000000    0.000000    0.000000    -5.570573    -29.099674    -10.152414    -1.972459    23.230011    -6.335589    8.329220    -1.103982    0.714423    0.000000    0.000000    0.000000    
-6.886293    86.526649    43.953739    -13.323424    2.947077    89.715462    1.426691    3.360209    -0.069837    0.965576    -2.236762    -0.011015    -0.641223    16.190693    1.772474    1.226628    6.888833    1.947918    -0.666189    3.532021    -15.070416    -54.596462    45.346626    -7.908083    0.767995    -27.208162    -28.586552    -12.186558    -25.714096    -13.729236    -5.234120    2.603880    7.655143    50.350670    36.575237    15.363040    -5.577558    -27.267723    20.113871    10.109529    -24.854612    19.003279    -4.974514    -28.414320    -5.621738    0.279201    19.292469    4.718181    -1.311431    5.270398    1.630086    0.000000    0.000000    0.000000    -5.503448    -28.197624    -10.029056    -1.847475    22.512880    -6.375899    8.256965    -0.897656    0.460803    0.000000    0.000000    0.000000    
-6.620341    86.685875    44.013184    -13.022626    2.994260    89.824966    1.498254    3.108701    -0.107021    0.669135    -2.349076    -0.053613    -0.839022    16.752317    1.782742    1.622864    6.541619    1.992145    -0.561339    3.553520    -14.998566    -55.683144    46.120365    -7.553857    0.399068    -27.342041    -27.077944    -12.120674    -25.942272    -13.773299    -5.004796    2.876410    7.584339    51.529091    37.172997    14.959739    -5.376401    -27.524826    19.150829    10.650594    -25.131283    18.745893    -4.919215    -27.559450    -5.635885    0.249669    18.604038    4.922824    -1.908369    5.727570    1.637585    0.000000    0.000000    0.000000    -5.512208    -27.284924    -9.873415    -1.671065    21.842621    -6.455943    8.158402    -0.729274    0.216616    0.000000    0.000000    0.000000    
-6.370940    86.827911    44.070423    -12.794243    3.031378    89.971313    1.551237    2.755991    -0.176157    0.464996    -2.368552    -0.129213    -0.558725    16.502396    1.931693    1.214572    7.242351    2.107199    -0.575057    3.583799    -14.792344    -56.563202    47.030495    -7.313133    0.165013    -27.525642    -25.690584    -11.877376    -26.274113    -13.067272    -4.927900    3.122278    7.554817    52.760010    37.766621    14.612741    -5.070603    -27.800653    18.096685    10.965786    -25.434696    18.978680    -4.886661    -26.806801    -5.700189    0.226895    17.981148    4.805828    -2.425028    6.071680    1.953987    0.000000    0.000000    0.000000    -5.532898    -26.458364    -9.739870    -1.493169    21.190765    -6.555197    8.034063    -0.590337    -0.016104    0.000000    0.000000    0.000000    
-6.095376    86.945168    44.143414    -12.550964    3.025533    90.019203    1.590588    2.355970    -0.152234    0.297502    -2.352615    -0.113246    -0.578287    17.029814    1.823845    1.273352    6.889144    2.000633    -0.549040    3.693036    -14.722585    -57.421864    47.814075    -7.112288    -0.228699    -27.650398    -24.309336    -11.364253    -26.555773    -12.795155    -4.800050    3.324545    7.487883    54.037666    38.305744    14.091604    -4.657680    -28.118279    17.168497    11.147119    -25.844492    18.769285    -4.742156    -26.043943    -5.605112    0.185113    17.437380    4.317835    -3.041963    6.088114    2.716910    0.000000    0.000000    0.000000    -5.428434    -25.614252    -9.513225    -1.361141    20.525471    -6.607344    7.902171    -0.491756    -0.237939    0.000000    0.000000    0.000000    
-5.841267    87.091537    44.178646    -12.256369    3.107883    90.242905    1.608861    2.093501    -0.240394    0.080813    -2.381949    -0.209574    -0.605507    17.039032    1.926426    1.342211    7.189464    2.109387    -0.542806    3.660061    -14.638886    -58.456337    48.506565    -6.651336    -0.647525    -27.685747    -23.052439    -10.676690    -26.798485    -12.043489    -4.696177    3.450711    7.414081    55.259632    38.844433    13.598697    -3.957823    -28.697617    16.421831    10.461590    -26.727642    17.919218    -4.864059    -25.259647    -5.833523    0.208179    16.924717    4.152138    -3.444482    6.325010    3.067661    0.000000    0.000000    0.000000    -5.547098    -24.722052    -9.525648    -1.212035    19.904184    -6.609703    7.836366    -0.364939    -0.495001    0.000000    0.000000    0.000000    
